<svg fill="none" height="1096" viewBox="0 0 2332 1096" width="2332" xmlns="http://www.w3.org/2000/svg" xmlns:xlink="http://www.w3.org/1999/xlink"><clipPath id="a"><path d="m0 0h2332v1096h-2332z"/></clipPath><g clip-path="url(#a)"><path d="m2094.41 628.056h-317.43c-.31 0-.31 0-.63 0-16.83 0-26.03-19.379-15.24-32.086l180.62-215.706c32.38-40.663 51.74-92.127 51.43-148.039-.96-129.296-108.25-232.22494866-237.13-232.22495276l-1518.223-.00004724c-128.879-.0000041-235.53761 102.929-236.807364 231.59-1.26975 129.931 104.119364 236.354 233.950364 236.354h1524.57.64c16.82 0 26.03 19.379 15.24 32.086l-179.99 215.07c-32.69 40.664-52.37 92.128-52.06 148.358.64 129.296 107.93 232.542 237.13 232.542h317.1c129.83 0 235.22-106.105 233.95-236.355-1.59-128.66-108.24-231.589-237.12-231.589z" fill="#262222"/></g></svg>