<svg fill="none" height="1458" viewBox="0 0 4935 1458" width="4935" xmlns="http://www.w3.org/2000/svg"><path d="m323.869 835.497h2131.711.86c22.98 0 35.55-25.779 20.81-42.683l-246.68-286.951c-44.22-54.094-70.67-122.557-70.23-196.936 1.3-172.002 147.83-308.927 323.85-308.927h2127.37c176.02 0 321.69 136.925 323.42 308.082 1.74 172.847-142.2 314.421-319.51 314.421h-2136.05c-.43 0-.43 0-.86 0-22.98 0-35.55 25.779-20.81 42.683l245.81 286.106c44.66 54.098 71.54 122.558 71.1 197.358-.86 172-147.4 309.35-323.85 309.35h-2131.276c-177.317 0-321.25264-141.15-319.5184928-314.42 2.1676928-171.157 147.8374928-308.083 323.8534928-308.083z" fill="#262222"/></svg>