<svg fill="none" height="60" viewBox="0 0 60 60" width="60" xmlns="http://www.w3.org/2000/svg"><path d="m30.3115 58.6231c12.406 0 19.3026 0 23.8071-4.5045s4.5045-11.4011 4.5045-23.8071c0-12.4059 0-19.3026-4.5045-23.80704-4.5045-4.50446-11.4011-4.50446-23.8071-4.50446-12.4059 0-19.3026 0-23.80704 4.50446-4.50446 4.50444-4.50446 11.40114-4.50446 23.80704 0 12.406 0 19.3026 4.50446 23.8071 4.50444 4.5045 11.40114 4.5045 23.80704 4.5045z" fill="#1e1919"/><path d="m30.3115 59.1999h.0456c6.1649 0 11.0251 0 14.9048-.5692 3.9086-.5734 6.8936-1.7332 9.2646-4.1042s3.5308-5.356 4.1042-9.2646c.5692-3.8797.5692-8.7399.5692-14.9048v-.0456-.0455c0-6.1649 0-11.0251-.5692-14.9048-.5734-3.9086-1.7332-6.89359-4.1042-9.26462-2.371-2.37102-5.356-3.53082-9.2646-4.10425-3.8797-.56917-8.7399-.56917-14.9048-.56916h-.0456-.0455c-6.165-.00001-11.0251-.00001-14.9048.56916-3.9086.57343-6.89359 1.73323-9.26462 4.10425-2.37102 2.37103-3.53082 5.35602-4.10425 9.26462-.56917 3.8797-.56917 8.7398-.56916 14.9048v.0455.0456c-.00001 6.1649-.00001 11.0251.56916 14.9048.57343 3.9086 1.73323 6.8936 4.10425 9.2646 2.37103 2.371 5.35602 3.5308 9.26462 4.1042 3.8797.5692 8.7399.5692 14.9048.5692z" stroke="#d1d1cf" stroke-opacity=".2" stroke-width="1.15366"/><g fill="#f5f5f0"><path d="m35.6863 22.306c-.0241-3.4215-2.8817-6.1502-6.3059-6.1502h-11.1591c-3.4001 0-6.2456 2.6865-6.3119 6.0839-.0664 3.4757 2.743 6.325 6.2034 6.325h4.9857c.3919 0 .5004.53.1447.6867l-7.6383 3.3431c-2.1884.9698-3.7136 3.1685-3.6955 5.7165.0241 3.4276 2.8816 6.1563 6.3059 6.1563h2.6164c3.4484 0 6.3241-2.7649 6.3181-6.2105-.0061-2.5962-1.6157-4.825-3.8885-5.7406-.2954-.1205-.2954-.5301-.006-.6566l8.7415-3.8311c2.1884-.9758 3.7136-3.1745 3.6895-5.7225z"/><rect height="3.53894" rx="1.44208" width="14.8636" x="32.4355" y="40.9282"/></g></svg>