<svg fill="none" height="279" viewBox="0 0 256 279" width="256" xmlns="http://www.w3.org/2000/svg"><path clip-rule="evenodd" d="m96.7636 105.513h123.7294c15.7 0 29.202 10.495 33.329 24.945.909 3.02 1.409 6.215 1.433 9.525.047 14.523-8.923 26.952-21.61 32.026l-2.972.689c-1.357.406-2.748.73-4.169.966l-129.7403 30.065c-3.625 1.303-3.8109 6.656 0 6.656h123.7293c18.822 0 34.483 15.083 34.623 33.982.186 19.085-15.244 34.633-34.252 34.633h-186.0977c-19.1009 0-35.041515-15.687-34.7626701-34.819.2323711-14.757 9.7595801-27.279 23.0047701-31.887l138.1236-31.208c3.625-1.303 1.436-6.656-2.375-6.656h-124.413c-16.5296 0-30.35299-11.793-33.554437-27.389-.551035-2.489-.8246528-5.078-.78595923-7.733.23237123-14.756 9.75958623-27.278 23.00469623-31.886l138.1237-31.2079c3.625-1.3034 1.436-6.6567-2.375-6.6567h-124.413c-19.008 0-34.4373459-15.5942-34.2514491-34.6331.1858971-18.8527 15.8011491-33.93492 34.6697491-33.93492h185.7307c18.915 0 34.623 15.17532 34.762 34.12112.047 14.5235-8.923 26.9524-21.61 32.0263l-136.8814 31.7196c-3.625 1.3036-3.8108 6.6566 0 6.6566z" fill="#f5f5f0" fill-rule="evenodd"/><g fill="#1e1919"><path d="m41.0654 230.627c-6.5298 0-10.4476 4.779-10.4476 10.685 0 5.907 3.9178 10.685 10.4476 10.685s10.4477-4.778 10.4477-10.685c0-5.906-3.9179-10.685-10.4477-10.685zm0 17.809c-4.0069 0-6.411-3.176-6.411-7.124 0-3.947 2.4041-7.123 6.411-7.123s6.4111 3.176 6.4111 7.123c0 3.948-2.4042 7.124-6.4111 7.124zm16.9464-12.347h-3.7991v21.37h3.7991v-6.382c0-.593-.1484-1.068-.4155-1.602-.1484-.297-.2672-.594.0593-.713.2672-.089.3859.208.4452.297.9498 1.722 2.5823 2.938 4.9568 2.938 4.0662 0 6.8265-3.561 6.8265-8.073 0-4.511-2.7603-8.073-6.8265-8.073-2.4339 0-4.007 1.247-4.9568 2.909-.0593.119-.2374.504-.5342.356s-.089-.505.0297-.801c.2671-.535.4155-1.01.4155-1.633zm4.1553 12.465c-2.4932 0-4.1553-2.137-4.1553-4.63s1.6621-4.63 4.1553-4.63c2.6713 0 3.9179 2.137 3.9179 4.63s-1.2466 4.63-3.9179 4.63zm24.9085-4.838c0-5.698-3.7694-7.865-7.3905-7.865-4.7786 0-7.8061 3.176-7.8061 8.073 0 4.66 2.79 8.073 7.8655 8.073 4.185 0 6.3813-2.463 7.064-5.698h-3.8585c-.4452 1.395-1.3653 2.374-3.1759 2.374-2.3744 0-3.9178-1.424-4.185-3.799h11.3975c.0593-.445.089-.742.089-1.158zm-11.3381-1.454c.3859-1.87 1.4841-3.324 4.0663-3.324 2.1964 0 3.3243 1.425 3.4727 3.324zm22.6449-6.411c-2.7306 0-4.5115 2.196-5.2238 3.77-.1187.237-.2078.415-.4452.356-.3859-.089-.2078-.505-.0891-.772.2968-.623.4749-1.187.4749-2.137v-.979h-3.7991v15.671h3.7991v-6.381c0-3.621 2.0183-6.085 4.2147-6.085 1.9886 0 2.9091.98 2.9091 4.512v7.954h3.799v-9.26c0-4.453-2.256-6.649-5.6396-6.649zm35.3056 0c-1.87 0-3.443 1.128-4.333 3.117-.089.207-.238.267-.416.267-.237 0-.386-.089-.445-.297-.416-1.811-1.722-3.087-3.77-3.087-2.077 0-3.532 1.276-4.333 3.324-.059.149-.178.416-.475.327s-.208-.386-.089-.653c.297-.653.505-1.098.505-1.87v-.89h-3.8v15.671h3.8v-7.242c0-3.028 1.365-5.224 3.205-5.224 1.929 0 2.256 1.306 2.256 3.68v8.786h3.799v-7.895c0-2.79 1.276-4.571 2.938-4.571 1.841 0 2.523.95 2.523 3.324v9.142h3.799v-9.735c0-4.69-2.433-6.174-5.164-6.174zm8.098-1.662h3.799v-3.799h-3.799zm0 17.571h3.799v-15.671h-3.799zm16.308-15.909c-2.731 0-4.512 2.196-5.224 3.77-.119.237-.208.415-.445.356-.386-.089-.208-.505-.09-.772.297-.623.475-1.187.475-2.137v-.979h-3.799v15.671h3.799v-6.381c0-3.621 2.019-6.085 4.215-6.085 1.989 0 2.909.98 2.909 4.512v7.954h3.799v-9.26c0-4.453-2.256-6.649-5.639-6.649zm19.731-5.461v6.292c0 .623.149 1.098.416 1.633.148.296.326.653.029.801-.296.148-.474-.237-.534-.356-.861-1.722-2.523-2.909-4.956-2.909-4.067 0-6.827 3.562-6.827 8.073 0 4.512 2.76 8.073 6.827 8.073 2.374 0 3.858-1.306 4.956-2.938.06-.089.178-.386.445-.297.327.119.208.416.06.713-.267.534-.416 1.009-.416 1.602v.683h3.799v-21.37zm-4.155 18.164c-2.671 0-3.918-2.137-3.918-4.63s1.247-4.63 3.918-4.63c2.493 0 4.155 2.137 4.155 4.63s-1.662 4.63-4.155 4.63zm25.4-4.838c0-5.698-3.769-7.865-7.39-7.865-4.779 0-7.807 3.176-7.807 8.073 0 4.66 2.79 8.073 7.866 8.073 4.185 0 6.381-2.463 7.064-5.698h-3.859c-.445 1.395-1.365 2.374-3.175 2.374-2.375 0-3.918-1.424-4.185-3.799h11.397c.059-.445.089-.742.089-1.158zm-11.338-1.454c.386-1.87 1.484-3.324 4.066-3.324 2.197 0 3.325 1.425 3.473 3.324zm25.181-11.872v6.292c0 .623.148 1.098.415 1.633.149.296.327.653.03.801s-.475-.237-.534-.356c-.861-1.722-2.523-2.909-4.957-2.909-4.066 0-6.827 3.562-6.827 8.073 0 4.512 2.761 8.073 6.827 8.073 2.374 0 3.858-1.306 4.957-2.938.059-.089.178-.386.445-.297.326.119.208.416.059.713-.267.534-.415 1.009-.415 1.602v.683h3.799v-21.37zm-4.156 18.164c-2.671 0-3.918-2.137-3.918-4.63s1.247-4.63 3.918-4.63c2.494 0 4.156 2.137 4.156 4.63s-1.662 4.63-4.156 4.63zm11.143-1.068v4.274h4.274v-4.274z"/><path d="m37.2356 126.75c-6.5298 0-10.4477 4.779-10.4477 10.685 0 5.907 3.9179 10.686 10.4477 10.686 6.5297 0 10.4476-4.779 10.4476-10.686 0-5.906-3.9179-10.685-10.4476-10.685zm0 17.809c-4.007 0-6.4111-3.176-6.4111-7.124 0-3.947 2.4041-7.123 6.4111-7.123 4.0069 0 6.411 3.176 6.411 7.123 0 3.948-2.4041 7.124-6.411 7.124zm16.9463-12.347h-3.7991v21.37h3.7991v-6.382c0-.593-.1484-1.068-.4155-1.602-.1484-.297-.2671-.594.0594-.713.2671-.089.3858.208.4452.297.9498 1.722 2.5822 2.939 4.9567 2.939 4.0663 0 6.8266-3.562 6.8266-8.074 0-4.511-2.7603-8.073-6.8266-8.073-2.4339 0-4.0069 1.247-4.9567 2.909-.0594.119-.2375.504-.5343.356s-.089-.505.0297-.801c.2671-.535.4155-1.01.4155-1.633zm4.1554 12.466c-2.4932 0-4.1554-2.137-4.1554-4.631 0-2.493 1.6622-4.63 4.1554-4.63 2.6712 0 3.9178 2.137 3.9178 4.63 0 2.494-1.2466 4.631-3.9178 4.631zm24.9085-4.838c0-5.699-3.7695-7.866-7.3906-7.866-4.7786 0-7.806 3.176-7.806 8.073 0 4.66 2.79 8.074 7.8654 8.074 4.185 0 6.3814-2.464 7.064-5.699h-3.8585c-.4452 1.395-1.3653 2.374-3.1758 2.374-2.3745 0-3.9179-1.424-4.185-3.799h11.3974c.0594-.445.0891-.742.0891-1.157zm-11.3381-1.455c.3858-1.87 1.484-3.324 4.0662-3.324 2.1964 0 3.3243 1.425 3.4727 3.324zm22.6448-6.411c-2.7306 0-4.5115 2.197-5.2238 3.77-.1187.237-.2078.415-.4452.356-.3859-.089-.2078-.505-.0891-.772.2969-.623.4749-1.187.4749-2.137v-.979h-3.7991v15.671h3.7991v-6.381c0-3.621 2.0183-6.085 4.2147-6.085 1.9886 0 2.9087.98 2.9087 4.512v7.954h3.7993v-9.26c0-4.452-2.2559-6.649-5.6395-6.649zm27.2325 0c-2.731 0-4.512 2.197-5.224 3.77-.119.237-.208.415-.445.356-.386-.089-.208-.505-.089-.772.297-.623.475-1.187.475-2.137v-6.678h-3.799v21.37h3.799v-6.381c0-3.621 2.018-6.085 4.214-6.085 1.989 0 2.909.98 2.909 4.512v7.954h3.799v-9.26c0-4.452-2.255-6.649-5.639-6.649zm23.056 7.866c0-5.699-3.77-7.866-7.391-7.866-4.778 0-7.806 3.176-7.806 8.073 0 4.66 2.79 8.074 7.866 8.074 4.185 0 6.381-2.464 7.064-5.699h-3.859c-.445 1.395-1.365 2.374-3.176 2.374-2.374 0-3.917-1.424-4.185-3.799h11.398c.059-.445.089-.742.089-1.157zm-11.338-1.455c.386-1.87 1.484-3.324 4.066-3.324 2.197 0 3.324 1.425 3.473 3.324zm13.076 5.194c0 2.642 2.523 4.542 5.462 4.542 2.79 0 4.511-1.247 5.402-3.414.059-.148.178-.445.474-.326.268.118.149.415.03.682-.267.505-.445 1.01-.445 1.722v1.098h3.799v-8.667c0-6.055-3.235-7.242-6.827-7.242-3.502 0-6.886 1.514-7.42 5.461h3.74c.208-1.276.89-2.374 3.562-2.374 2.701 0 3.116 1.187 3.146 2.256.03 1.454-2.434 1.187-5.224 1.335-3.146.178-5.699 1.455-5.699 4.927zm10.923-3.769c-.03 3.888-2.107 5.194-4.126 5.461-1.751.238-2.998-.593-2.998-1.899 0-1.395.921-2.019 2.553-2.197 2.256-.237 3.68-.386 4.571-1.365zm10.493-4.244c-.356-.06-.267-.416-.148-.683.267-.534.445-1.128.445-1.811v-.86h-3.799v15.671h3.799v-6.797c0-3.977 1.277-5.55 5.699-5.253v-3.859c-3.829 0-4.69 1.128-5.639 3.295-.03.089-.178.326-.357.297zm18.206-.03v-3.324h-4.274v-4.274h-3.799v4.274h-2.849v3.324h2.849v7.539c0 3.769 1.484 4.808 4.63 4.808h3.443v-3.324h-2.641c-1.603 0-1.633-.149-1.633-1.87v-7.153zm16.699 4.304c0-5.699-3.77-7.866-7.391-7.866-4.778 0-7.806 3.176-7.806 8.073 0 4.66 2.79 8.074 7.866 8.074 4.185 0 6.381-2.464 7.064-5.699h-3.859c-.445 1.395-1.365 2.374-3.176 2.374-2.374 0-3.917-1.424-4.185-3.799h11.398c.059-.445.089-.742.089-1.157zm-11.338-1.455c.386-1.87 1.484-3.324 4.066-3.324 2.197 0 3.324 1.425 3.473 3.324zm25.181-11.872v6.292c0 .623.148 1.098.415 1.633.149.296.327.653.03.801s-.475-.237-.534-.356c-.861-1.722-2.523-2.909-4.957-2.909-4.066 0-6.827 3.562-6.827 8.073 0 4.512 2.761 8.074 6.827 8.074 2.374 0 3.858-1.306 4.957-2.939.059-.089.178-.386.445-.297.326.119.208.416.059.713-.267.534-.415 1.009-.415 1.602v.683h3.799v-21.37zm-4.156 18.165c-2.671 0-3.918-2.137-3.918-4.631 0-2.493 1.247-4.63 3.918-4.63 2.493 0 4.156 2.137 4.156 4.63 0 2.494-1.663 4.631-4.156 4.631zm11.142-1.069v4.274h4.274v-4.274z"/><path d="m44.3243 22.8672c-6.5297 0-10.4476 4.7787-10.4476 10.6851 0 5.9065 3.9179 10.6851 10.4476 10.6851 6.5298 0 10.4477-4.7786 10.4477-10.6851 0-5.9064-3.9179-10.6851-10.4477-10.6851zm0 17.8085c-4.0069 0-6.411-3.1758-6.411-7.1234 0-3.9475 2.4041-7.1234 6.411-7.1234 4.007 0 6.4111 3.1759 6.4111 7.1234 0 3.9476-2.4041 7.1234-6.4111 7.1234zm16.9464-12.3472h-3.7991v21.3702h3.7991v-6.3814c0-.5936-.1484-1.0685-.4155-1.6027-.1484-.2968-.2671-.5936.0593-.7124.2672-.089.3859.2078.4453.2968.9497 1.7215 2.5822 2.9384 4.9567 2.9384 4.0662 0 6.8266-3.5617 6.8266-8.0731 0-4.5115-2.7604-8.0732-6.8266-8.0732-2.4339 0-4.007 1.2466-4.9567 2.9087-.0594.1187-.2375.5046-.5343.3562s-.089-.5046.0297-.8014c.2671-.5343.4155-1.0092.4155-1.6325zm4.1553 12.466c-2.4932 0-4.1553-2.1371-4.1553-4.6302 0-2.4932 1.6621-4.6303 4.1553-4.6303 2.6713 0 3.9179 2.1371 3.9179 4.6303 0 2.4931-1.2466 4.6302-3.9179 4.6302zm24.9085-4.838c0-5.6987-3.7694-7.8654-7.3905-7.8654-4.7786 0-7.8061 3.1758-7.8061 8.0732 0 4.6598 2.79 8.0731 7.8655 8.0731 4.185 0 6.3813-2.4635 7.064-5.6987h-3.8585c-.4452 1.395-1.3653 2.3745-3.1759 2.3745-2.3744 0-3.9178-1.4247-4.185-3.7992h11.3975c.0593-.4452.089-.742.089-1.1575zm-11.3381-1.4544c.3859-1.8699 1.4841-3.3242 4.0663-3.3242 2.1964 0 3.3243 1.4247 3.4727 3.3242zm22.6446-6.411c-2.7303 0-4.5112 2.1963-5.2235 3.7694-.1187.2375-.2078.4156-.4452.3562-.3859-.089-.2078-.5046-.0891-.7717.2968-.6233.4749-1.1872.4749-2.137v-.9795h-3.7991v15.6715h3.7991v-6.3814c0-3.621 2.0183-6.0846 4.2149-6.0846 1.988 0 2.909.9795 2.909 4.5115v7.9545h3.799v-9.2604c0-4.4522-2.256-6.6485-5.64-6.6485zm17.201 10.6257c.148 3.3539 2.552 5.5206 7.093 5.5206 4.631 0 7.153-1.8698 7.153-5.1347 0-3.1462-2.76-4.3928-6.589-4.7787-3.057-.2968-3.383-.9201-3.383-1.6621 0-.8904.653-1.6028 2.819-1.6028 2.197 0 2.85 1.0982 2.939 2.0777h3.74c-.208-2.8494-2.464-5.0457-6.59-5.0457-4.452 0-6.708 2.226-6.708 4.7786 0 1.7512.624 4.2443 5.432 4.838 2.998.3561 4.541.5342 4.541 1.6918 0 1.0388-.801 1.8699-3.235 1.8699-2.76 0-3.443-1.395-3.473-2.5526zm23.843-10.6257c-4.898 0-7.836 3.621-7.836 8.0732 0 4.4521 2.938 8.0731 7.836 8.0731 4.897 0 7.836-3.621 7.836-8.0731 0-4.4522-2.939-8.0732-7.836-8.0732zm0 12.7034c-2.582 0-4.037-2.0777-4.037-4.6302 0-2.5526 1.455-4.6303 4.037-4.6303s4.036 2.0777 4.036 4.6303c0 2.5525-1.454 4.6302-4.036 4.6302zm15.706 3.4429c2.731 0 4.452-2.226 5.224-3.7694.119-.2375.208-.4156.445-.3562.386.0891.208.5046.089.7717-.267.6233-.475 1.1872-.475 2.137v.9795h3.799v-15.6715h-3.799v6.3814c0 3.6211-2.018 6.0846-4.214 6.0846-1.989 0-2.909-.9795-2.909-4.5115v-7.9545h-3.799v9.2604c0 4.4522 2.255 6.6485 5.639 6.6485zm15.998-12.555c-.357-.0593-.268-.4155-.149-.6826.267-.5343.445-1.1279.445-1.8105v-.8608h-3.799v15.6715h3.799v-6.7969c0-3.9772 1.277-5.5503 5.699-5.2535v-3.8585c-3.829 0-4.689 1.1278-5.639 3.2945-.03.0891-.178.3265-.356.2968zm6.801 4.4819c0 4.6598 3.147 8.0731 7.925 8.0731 4.423 0 7.005-2.968 7.272-6.1736h-3.74c-.237 1.4841-1.395 2.7307-3.532 2.7307-2.612 0-4.125-1.8996-4.125-4.6302 0-2.7307 1.513-4.6303 4.125-4.6303 2.137 0 3.295 1.2466 3.532 2.7307h3.74c-.267-3.2056-2.879-6.1736-7.272-6.1736-4.867 0-7.925 3.4133-7.925 8.0732zm32.248-.2078c0-5.6987-3.77-7.8654-7.391-7.8654-4.778 0-7.806 3.1758-7.806 8.0732 0 4.6598 2.79 8.0731 7.866 8.0731 4.185 0 6.381-2.4635 7.064-5.6987h-3.859c-.445 1.395-1.365 2.3745-3.176 2.3745-2.374 0-3.917-1.4247-4.185-3.7992h11.398c.059-.4452.089-.742.089-1.1575zm-11.338-1.4544c.386-1.8699 1.484-3.3242 4.066-3.3242 2.197 0 3.324 1.4247 3.473 3.3242zm13.551 5.2239v4.274h4.274v-4.274z"/></g></svg>