<svg fill="none" height="60" viewBox="0 0 60 60" width="60" xmlns="http://www.w3.org/2000/svg"><path d="m30.0288 58.0577c12.2821 0 19.1099 0 23.5694-4.4595s4.4595-11.2873 4.4595-23.5694c0-12.282 0-19.1098-4.4595-23.56931-4.4595-4.45949-11.2873-4.45949-23.5694-4.45949-12.282 0-19.1098 0-23.56931 4.45949-4.45949 4.45951-4.45949 11.28731-4.45949 23.56931 0 12.2821 0 19.1099 4.45949 23.5694 4.45951 4.4595 11.28731 4.4595 23.56931 4.4595z" fill="#73dc8c"/><path d="m6.05437 6.05437.40512.40512-.40512-.40512c-2.34772 2.34773-3.49605 5.30333-4.06378 9.17313-.56351 3.8411-.56351 8.6528-.56351 14.7561v.0452.0453c0 6.1032 0 10.915.56351 14.7561.56773 3.8698 1.71606 6.8254 4.06378 9.1731l.40512-.4051-.40512.4051c2.34773 2.3477 5.30333 3.4961 9.17313 4.0638 3.8411.5635 8.6528.5635 14.756.5635h.0453.0454c6.1032 0 10.9149 0 14.756-.5635 3.8698-.5677 6.8254-1.7161 9.1731-4.0638s3.4961-5.3033 4.0638-9.1731c.5635-3.8411.5635-8.6528.5635-14.756v-.0454-.0453c0-6.1032 0-10.9149-.5635-14.756-.5677-3.8698-1.7161-6.8254-4.0638-9.17313l-.2893.28937.2893-.28937c-2.3477-2.34772-5.3033-3.49605-9.1731-4.06378-3.8411-.56351-8.6529-.56351-14.7561-.56351h-.0453-.0452c-6.1033 0-10.915 0-14.7561.56351-3.8698.56773-6.8254 1.71606-9.17313 4.06378z" stroke="#d1d1cf" stroke-opacity=".2" stroke-width="1.14583"/><path d="m41.6569 22.1025c-.0239-3.3873-2.8529-6.0888-6.243-6.0888h-11.0476c-3.3662 0-6.1833 2.6597-6.249 6.0232-.0656 3.441 2.7157 6.2618 6.1416 6.2618h4.9359c.3879 0 .4954.5248.1432.6798l-7.562 3.3098c-2.1665.9601-3.6766 3.1368-3.6587 5.6594.0239 3.3933 2.853 6.0948 6.243 6.0948h2.5904c3.4139 0 6.2609-2.7373 6.2549-6.1484-.006-2.5703-1.5996-4.7769-3.8497-5.6833-.2924-.1193-.2924-.5248-.0059-.6501l8.6542-3.7928c2.1666-.9661 3.6766-3.1428 3.6527-5.6654z" fill="#1e1919"/></svg>